<svg width="100" height="100" viewBox="0 0 100 100" fill="none" xmlns="http://www.w3.org/2000/svg">
<path d="M84.4073 11.4454C87.3363 8.51652 92.085 8.51652 95.0139 11.4454C97.9429 14.3744 97.9429 19.1231 95.0139 22.052L49.052 68.014C46.1231 70.9429 41.3743 70.9429 38.4454 68.014C35.5165 65.0851 35.5165 60.3363 38.4454 57.4074L84.4073 11.4454Z" fill="#02CA9F"/>
<path d="M24.3033 53.8719C21.3743 50.9429 21.3743 46.1942 24.3033 43.2653C27.2322 40.3363 31.9809 40.3363 34.9099 43.2653L49.052 57.4074C51.9809 60.3363 51.9809 65.0851 49.052 68.014C46.1231 70.9429 41.3743 70.9429 38.4454 68.014L24.3033 53.8719Z" fill="#02CA9F"/>
<path d="M68.7937 3.66649C58.6629 -0.442781 47.4644 -1.11839 36.9129 1.74311C26.3615 4.60462 17.0387 10.8455 10.3721 19.5102C3.70546 28.1749 0.062419 38.7858 0.000794848 49.7182C-0.0608293 60.6506 3.46236 71.3019 10.0309 80.0412C16.5994 88.7804 25.8512 95.126 36.3697 98.1063C46.8882 101.087 58.0937 100.537 68.2702 96.5425C78.4468 92.5477 87.0336 85.3276 92.7158 75.9877C98.398 66.6478 100.863 55.703 99.7319 44.8291L84.8123 46.3803C85.6038 53.9921 83.8786 61.6535 79.9011 68.1914C75.9235 74.7293 69.9127 79.7834 62.7892 82.5797C55.6656 85.3761 47.8218 85.7606 40.4588 83.6744C33.0959 81.5882 26.6196 77.1463 22.0216 71.0288C17.4236 64.9113 14.9574 57.4554 15.0006 49.8027C15.0437 42.1501 17.5938 34.7224 22.2605 28.6571C26.9271 22.5919 33.453 18.2232 40.8391 16.2202C48.2251 14.2171 56.064 14.6901 63.1556 17.5665L68.7937 3.66649Z" fill="#017ACB"/>
<path d="M73 10.5C73 14.6422 69.6421 18 65.5 18C61.3579 18 58 14.6422 58 10.5C58 6.35788 61.3579 3.00001 65.5 3.00001C69.6421 3.00001 73 6.35788 73 10.5Z" fill="#017ACB"/>
<path d="M99.8 45.5C99.8 49.6422 96.4422 53 92.3 53C88.1579 53 84.8 49.6422 84.8 45.5C84.8 41.3579 88.1579 38 92.3 38C96.4422 38 99.8 41.3579 99.8 45.5Z" fill="#017ACB"/>
</svg>
